---
date: "2020-03-27 15:14"
layout: post
title: 噬血狂袭 O.S.T. CUE文件
categories: [backup]
tags: [anime]
---

　　多日前在 dmhy 下载到了 VCB-S 发布的 噬血狂袭 BDRip，但是发现其中O.S.T.的 CUE 只包含音轨索引，没有曲目信息，于是便自行寻找录入并在此加以备份。
<!-- more -->

[发布页](https://share.dmhy.org/topics/view/402530_VCB-Studio_Strike_the_Blood_10bit_1080p_HEVC_BDRip_Fin.html "动漫花园")

<cite>Strike The Blood Vol.1 Original Soundtrack.cue</cite>

```
REM DISCID B40D2C1E
REM COMMENT "ExactAudioCopy v1.0b3"
PERFORMER "ASSUMED SOUND"
TITLE "Strike The Blood Vol.1 Original Soundtrack"
FILE "Strike The Blood Vol.1 Original Soundtrack.flac" WAVE
  TRACK 01 AUDIO
    TITLE "ストライク?ザ?ブラッド (TV Size)"
    PERFORMER "岸田教团&THE明星ロケッツ"
    INDEX 01 00:00:00
  TRACK 02 AUDIO
    TITLE "Strike The Blood"
    PERFORMER "ASSUMED SOUND"
    INDEX 00 01:30:61
    INDEX 01 01:32:69
  TRACK 03 AUDIO
    TITLE "动き出す真意"
    PERFORMER "ASSUMED SOUND"
    INDEX 01 03:39:66
  TRACK 04 AUDIO
    TITLE "狮子王机関"
    PERFORMER "ASSUMED SOUND"
    INDEX 01 05:08:52
  TRACK 05 AUDIO
    TITLE "パーティー会场にて"
    PERFORMER "ASSUMED SOUND"
    INDEX 00 07:10:21
    INDEX 01 07:11:66
  TRACK 06 AUDIO
    TITLE "第四真祖の悩み"
    PERFORMER "ASSUMED SOUND"
    INDEX 00 08:13:72
    INDEX 01 08:15:04
  TRACK 07 AUDIO
    TITLE "剣巫"
    PERFORMER "ASSUMED SOUND"
    INDEX 00 09:40:22
    INDEX 01 09:41:67
  TRACK 08 AUDIO
    TITLE "登校风景"
    PERFORMER "ASSUMED SOUND"
    INDEX 01 11:59:27
  TRACK 09 AUDIO
    TITLE "ふたりで买い物に"
    PERFORMER "ASSUMED SOUND"
    INDEX 00 14:42:48
    INDEX 01 14:45:18
  TRACK 10 AUDIO
    TITLE "そして日常に"
    PERFORMER "ASSUMED SOUND"
    INDEX 00 16:25:53
    INDEX 01 16:27:23
  TRACK 11 AUDIO
    TITLE "那月のお小言"
    PERFORMER "ASSUMED SOUND"
    INDEX 00 18:20:40
    INDEX 01 18:22:10
  TRACK 12 AUDIO
    TITLE "ふたりの関系は？"
    PERFORMER "ASSUMED SOUND"
    INDEX 00 19:34:33
    INDEX 01 19:35:41
  TRACK 13 AUDIO
    TITLE "日常のちょっとしたこと"
    PERFORMER "ASSUMED SOUND"
    INDEX 00 21:10:47
    INDEX 01 21:11:55
  TRACK 14 AUDIO
    TITLE "日差しの中で"
    PERFORMER "ASSUMED SOUND"
    INDEX 00 23:04:37
    INDEX 01 23:06:07
  TRACK 15 AUDIO
    TITLE "何を隠してるの？"
    PERFORMER "ASSUMED SOUND"
    INDEX 00 24:37:52
    INDEX 01 24:38:59
  TRACK 16 AUDIO
    TITLE "忘れていた过去"
    PERFORMER "ASSUMED SOUND"
    INDEX 00 26:03:27
    INDEX 01 26:05:72
  TRACK 17 AUDIO
    TITLE "あなただから。"
    PERFORMER "ASSUMED SOUND"
    INDEX 00 28:04:07
    INDEX 01 28:06:15
  TRACK 18 AUDIO
    TITLE "本当の気持ちを"
    PERFORMER "ASSUMED SOUND"
    INDEX 00 30:59:02
    INDEX 01 31:00:47
  TRACK 19 AUDIO
    TITLE "いつか思い出す彼女"
    PERFORMER "ASSUMED SOUND"
    INDEX 00 32:36:37
    INDEX 01 32:38:07
  TRACK 20 AUDIO
    TITLE "彼女のやさしさ"
    PERFORMER "ASSUMED SOUND"
    INDEX 00 34:29:71
    INDEX 01 34:32:04
  TRACK 21 AUDIO
    TITLE " 一途な思い"
    PERFORMER "ASSUMED SOUND"
    INDEX 00 36:38:36
    INDEX 01 36:40:06
  TRACK 22 AUDIO
    TITLE "その决意の先に"
    PERFORMER "ASSUMED SOUND"
    INDEX 00 38:41:06
    INDEX 01 38:43:51
  TRACK 23 AUDIO
    TITLE "暗云が空を覆い"
    PERFORMER "ASSUMED SOUND"
    INDEX 00 41:11:31
    INDEX 01 41:12:39
  TRACK 24 AUDIO
    TITLE "神々の兵器"
    PERFORMER "ASSUMED SOUND"
    INDEX 00 43:10:62
    INDEX 01 43:12:70
  TRACK 25 AUDIO
    TITLE "ホムンクルス"
    PERFORMER "ASSUMED SOUND"
    INDEX 00 45:05:08
    INDEX 01 45:06:53
  TRACK 26 AUDIO
    TITLE "魔族特区"
    PERFORMER "ASSUMED SOUND"
    INDEX 00 47:09:02
    INDEX 01 47:10:47
  TRACK 27 AUDIO
    TITLE "强大なチカラ"
    PERFORMER "ASSUMED SOUND"
    INDEX 00 48:19:24
    INDEX 01 48:20:32
  TRACK 28 AUDIO
    TITLE "疾风怒涛"
    PERFORMER "ASSUMED SOUND"
    INDEX 00 49:50:05
    INDEX 01 49:52:25
  TRACK 29 AUDIO
    TITLE "チェイス"
    PERFORMER "ASSUMED SOUND"
    INDEX 01 52:12:30
  TRACK 30 AUDIO
    TITLE "Strike my soul (TV Size)"
    PERFORMER "井口裕香"
    INDEX 00 54:39:44
    INDEX 01 54:40:52

```

<cite>Strike The Blood Vol.5 Original Soundtrack 2.cue</cite>

```
REM GENRE Anime
REM DATE 2014
REM DISCID C40F441E
REM COMMENT "ExactAudioCopy v1.0b3"
PERFORMER "ASSUMED SOUND"
TITLE "Strike The Blood Vol.5 Original Soundtrack 2"
FILE "Strike The Blood Vol.5 Original Soundtrack 2.wav" WAVE
  TRACK 01 AUDIO
    TITLE "Fight 4 Real (TV-size)"
    PERFORMER "ALTIMA"
	SONGWRITER "黒崎真音;八木沼悟志"
    INDEX 01 00:00:00
  TRACK 02 AUDIO
    TITLE "一进一退"
    PERFORMER "ASSUMED SOUND"
    INDEX 00 01:29:43
    INDEX 01 01:32:13
  TRACK 03 AUDIO
    TITLE "强袭"
    PERFORMER "ASSUMED SOUND"
    INDEX 01 04:17:41
  TRACK 04 AUDIO
    TITLE "ワイズマンズ・ブラッド"
    PERFORMER "ASSUMED SOUND"
    INDEX 00 06:15:63
    INDEX 01 06:17:33
  TRACK 05 AUDIO
    TITLE "魔女の愿い"
    PERFORMER "ASSUMED SOUND"
    INDEX 00 08:10:50
    INDEX 01 08:11:58
  TRACK 06 AUDIO
    TITLE "思惑"
    PERFORMER "ASSUMED SOUND"
    INDEX 00 11:13:28
    INDEX 01 11:14:36
  TRACK 07 AUDIO
    TITLE "舞いそして踊れ"
    PERFORMER "ASSUMED SOUND"
    INDEX 00 13:57:57
    INDEX 01 13:59:64
  TRACK 08 AUDIO
    TITLE "风が髪をなびかす"
    PERFORMER "ASSUMED SOUND"
    INDEX 00 17:05:35
    INDEX 01 17:07:43
  TRACK 09 AUDIO
    TITLE "弦神岛ストリート"
    PERFORMER "ASSUMED SOUND"
    INDEX 00 19:22:70
    INDEX 01 19:24:40
  TRACK 10 AUDIO
    TITLE "ティータイム"
    PERFORMER "ASSUMED SOUND"
    INDEX 00 21:21:64
    INDEX 01 21:22:72
  TRACK 11 AUDIO
    TITLE "波胧院フェスタ"
    PERFORMER "ASSUMED SOUND"
    INDEX 00 24:12:48
    INDEX 01 24:13:56
  TRACK 12 AUDIO
    TITLE "木漏れ日の下で"
    PERFORMER "ASSUMED SOUND"
    INDEX 00 26:46:43
    INDEX 01 26:47:50
  TRACK 13 AUDIO
    TITLE "頼りになる妹"
    PERFORMER "ASSUMED SOUND"
    INDEX 00 29:19:43
    INDEX 01 29:21:13
  TRACK 14 AUDIO
    TITLE "监视者の日常"
    PERFORMER "ASSUMED SOUND"
    INDEX 00 31:17:12
    INDEX 01 31:18:57
  TRACK 15 AUDIO
    TITLE "もしかして…"
    PERFORMER "ASSUMED SOUND"
    INDEX 01 33:05:44
  TRACK 16 AUDIO
    TITLE "思い出は変わらない"
    PERFORMER "ASSUMED SOUND"
    INDEX 00 34:45:14
    INDEX 01 34:46:59
  TRACK 17 AUDIO
    TITLE "Fight 4 Real (piano ver.)"
    PERFORMER "ASSUMED SOUND"
    INDEX 00 36:44:02
    INDEX 01 36:46:10
  TRACK 18 AUDIO
    TITLE "面影"
    PERFORMER "ASSUMED SOUND"
    INDEX 00 39:14:28
    INDEX 01 39:16:36
  TRACK 19 AUDIO
    TITLE "signal (piano ver.)"
    PERFORMER "ASSUMED SOUND"
    INDEX 00 40:54:35
    INDEX 01 40:57:05
  TRACK 20 AUDIO
    TITLE "やさしさのかたち"
    PERFORMER "ASSUMED SOUND"
    INDEX 00 43:19:38
    INDEX 01 43:22:08
  TRACK 21 AUDIO
    TITLE "手を伸ばしてくれたから"
    PERFORMER "ASSUMED SOUND"
    INDEX 00 44:49:06
    INDEX 01 44:51:51
  TRACK 22 AUDIO
    TITLE "涙の理由"
    PERFORMER "ASSUMED SOUND"
    INDEX 00 46:36:69
    INDEX 01 46:38:39
  TRACK 23 AUDIO
    TITLE "ガールズトーク"
    PERFORMER "ASSUMED SOUND"
    INDEX 00 48:16:64
    INDEX 01 48:18:72
  TRACK 24 AUDIO
    TITLE "监狱结界"
    PERFORMER "ASSUMED SOUND"
    INDEX 00 50:13:01
    INDEX 01 50:15:46
  TRACK 25 AUDIO
    TITLE "血脉を継ぎし者"
    PERFORMER "ASSUMED SOUND"
    INDEX 01 52:07:32
  TRACK 26 AUDIO
    TITLE "魔のチカラ"
    PERFORMER "ASSUMED SOUND"
    INDEX 01 54:30:72
  TRACK 27 AUDIO
    TITLE "空隙の魔女"
    PERFORMER "ASSUMED SOUND"
    INDEX 01 56:49:62
  TRACK 28 AUDIO
    TITLE "ハードアタック"
    PERFORMER "ASSUMED SOUND"
    INDEX 01 59:28:37
  TRACK 29 AUDIO
    TITLE "舞威媛"
    PERFORMER "ASSUMED SOUND"
    INDEX 00 61:45:31
    INDEX 01 61:47:38
  TRACK 30 AUDIO
    TITLE "signal (TV-size)"
    PERFORMER "分岛花音"
    INDEX 00 63:31:60
    INDEX 01 63:34:30

```
